<?xml version="1.0" encoding="UTF-8" standalone="no"?>
<svg
   xmlns:dc="http://purl.org/dc/elements/1.1/"
   xmlns:cc="http://creativecommons.org/ns#"
   xmlns:rdf="http://www.w3.org/1999/02/22-rdf-syntax-ns#"
   xmlns:svg="http://www.w3.org/2000/svg"
   xmlns="http://www.w3.org/2000/svg"
   xmlns:sodipodi="http://sodipodi.sourceforge.net/DTD/sodipodi-0.dtd"
   xmlns:inkscape="http://www.inkscape.org/namespaces/inkscape"
   sodipodi:docname="chirpy_logo.svg"
   inkscape:version="1.0 (4035a4f, 2020-05-01)"
   id="svg8"
   version="1.1"
   viewBox="0 0 210 297"
   height="297mm"
   width="210mm">
  <defs
     id="defs2" />
  <sodipodi:namedview
     inkscape:window-maximized="0"
     inkscape:window-y="1463"
     inkscape:window-x="788"
     inkscape:window-height="855"
     inkscape:window-width="1440"
     showguides="false"
     inkscape:snap-global="false"
     inkscape:snap-nodes="false"
     inkscape:snap-page="true"
     inkscape:lockguides="false"
     showgrid="false"
     inkscape:document-rotation="0"
     inkscape:current-layer="layer1"
     inkscape:document-units="mm"
     inkscape:cy="488.83686"
     inkscape:cx="593.92556"
     inkscape:zoom="0.69"
     inkscape:pageshadow="2"
     inkscape:pageopacity="0.0"
     borderopacity="1.0"
     bordercolor="#666666"
     pagecolor="#ffffff"
     id="base" />
  <metadata
     id="metadata5">
    <rdf:RDF>
      <cc:Work
         rdf:about="">
        <dc:format>image/svg+xml</dc:format>
        <dc:type
           rdf:resource="http://purl.org/dc/dcmitype/StillImage" />
        <dc:title></dc:title>
      </cc:Work>
    </rdf:RDF>
  </metadata>
  <g
     inkscape:label="Layer 9"
     id="layer9"
     inkscape:groupmode="layer">
    <path
       sodipodi:nodetypes="cscccc"
       id="path882"
       d="m 128.482,198.67787 c 0,0 1.12211,28.05284 5.61057,38.71291 4.48845,10.66008 6.17162,10.09903 6.17162,10.09903 0,0 7.29374,-6.17163 11.78219,-3.36635 -2.24422,-3.92739 -9.53796,-15.14853 -10.66008,-53.30039 -12.9043,7.8548 -12.9043,7.8548 -12.9043,7.8548 z"
       style="display:inline;opacity:1;fill:#2f2424;stroke:#000000;stroke-width:0.26458300000000001px;stroke-linecap:butt;stroke-linejoin:miter;stroke-opacity:1;fill-opacity:1" />
  </g>
  <g
     style="display:inline;opacity:0.5"
     id="layer1"
     inkscape:groupmode="layer"
     inkscape:label="Layer 1">
    <a
       id="a849" />
  </g>
  <g
     style="display:inline"
     inkscape:label="Layer 4"
     id="layer4"
     inkscape:groupmode="layer" />
  <g
     style="display:inline"
     inkscape:label="Layer 2"
     id="layer2"
     inkscape:groupmode="layer">
    <path
       style="opacity:1;fill:#b1040e;fill-opacity:1;stroke:none;stroke-width:0.264583px;stroke-linecap:butt;stroke-linejoin:miter;stroke-opacity:1"
       d="m 128.80292,104.2623 c 0.40513,-3.53604 1.00236,-12.207377 1.00236,-12.207377 1.03769,-8.824774 -2.61222,-8.681173 -4.31719,-16.459685 0,0 4.53572,-15.875 12.09524,-23.434524 7.55953,-7.559524 25.70238,-13.607142 25.70238,-13.607142 0,0 1.97684,19.538814 -1.80292,24.83048 0,0 17.38921,19.542269 14.59614,37.625998 4.53571,21.92263 9.88535,49.42447 -1.45393,63.03161 -11.33929,13.60715 -40.82143,35.52976 -55.18453,37.04167 -14.36309,1.51191 -23.43452,1.51191 -22.678565,0.75595 0.755951,-0.75595 -9.643396,7.31237 -15.407762,14.94168 L 69.488495,232.4855 c 0,0 -2.208735,-8.7236 -0.696829,-10.2355 1.511906,-1.51191 -17.386906,35.52976 -18.142857,40.06547 -0.755952,4.53571 -2.267858,-9.82738 -1.511904,-14.36309 0.755952,-4.53572 -14.363096,40.06547 -21.92262,41.57737 -7.559523,1.51191 -4.535714,-6.80357 -8.315476,-1.5119 -3.779762,5.29166 -5.291666,0.75596 -7.559523,0 -2.2678576,-0.75595 7.559523,-19.65476 8.315476,-21.16667 0.755952,-1.51191 -1.511905,-2.26785 3.779762,-8.31547 5.291666,-6.04762 6.80357,-8.31547 6.80357,-8.31547 0,0 1.511906,-7.55953 5.291666,-12.09524 3.779764,-4.53572 6.803573,-8.31548 6.803573,-8.31548 0,0 3.023809,-9.07143 9.827381,-16.63095 6.80357,-7.55952 15.119046,-18.14286 13.607143,-21.16667 -1.511906,-3.02381 3.370495,-33.31757 26.631677,-55.29989 23.261176,-21.98232 27.545436,-27.92475 36.403386,-32.44971 z"
       id="path847"
       sodipodi:nodetypes="cccscccsssscsssssssscscsscc" />
  </g>
  <g
     style="display:inline"
     inkscape:label="Layer 3"
     id="layer3"
     inkscape:groupmode="layer">
    <path
       sodipodi:nodetypes="cccsccccc"
       id="path852"
       d="m 128.80292,104.2623 0.32325,7.41439 c 0,0 17.44948,2.79191 20.93938,-3.4899 1.74494,-8.02676 1.39596,-21.986348 1.39596,-22.335336 0,-0.348991 3.24032,-3.357832 6.6308,-12.912616 -5.33426,-6.06489 -13.26161,-3.838888 -13.6106,-1.04697 -6.58171,-2.431271 -9.18922,-3.242134 -16.25222,-2.579851 l -3.64019,9.559644 c 0,0 6.33329,18.32524 4.21362,25.390639 z"
       style="opacity:1;fill:#2f2424;fill-opacity:1;stroke:none;stroke-width:0.264583px;stroke-linecap:butt;stroke-linejoin:miter;stroke-opacity:1" />
  </g>
  <g
     style="display:inline"
     inkscape:label="Layer 5"
     id="layer5"
     inkscape:groupmode="layer">
    <ellipse
       ry="4.013381"
       rx="4.1878757"
       cy="75.905251"
       cx="150.06555"
       id="path867"
       style="opacity:0.871383;fill:#000000;fill-opacity:1;stroke:#ffffff;stroke-width:0.3;stroke-linejoin:round;stroke-miterlimit:4;stroke-dasharray:none;stroke-dashoffset:0;stroke-opacity:1" />
  </g>
  <g
     inkscape:label="Layer 7"
     id="layer7"
     inkscape:groupmode="layer">
    <path
       sodipodi:nodetypes="cccc"
       id="path875"
       d="m 130.16517,72.376323 c 0,0 -8.41585,3.366341 -10.09902,9.537964 8.41585,-2.805282 19.07593,-1.122114 19.07593,-1.122114 0,0 1.12211,-2.805284 -8.97691,-8.41585 z"
       style="fill:#e98300;stroke:none;stroke-width:0.26458300000000001px;stroke-linecap:butt;stroke-linejoin:miter;stroke-opacity:1;fill-opacity:1" />
    <path
       sodipodi:nodetypes="cccc"
       id="path877"
       d="m 139.17396,92.045198 c -16.27064,-2.805284 -10.66007,0 -16.27064,-2.805284 0.56105,-7.854793 16.27064,-8.415851 16.27064,-8.415851 0,0 5.61057,5.049512 0,11.221135 z"
       style="fill:#e98300;fill-opacity:1;stroke:none;stroke-width:0.264583px;stroke-linecap:butt;stroke-linejoin:miter;stroke-opacity:1" />
  </g>
  <g
     inkscape:label="Layer 6"
     id="layer6"
     inkscape:groupmode="layer">
    <circle
       r="1.2214638"
       cy="74.340477"
       cx="149.37325"
       id="path872"
       style="opacity:0.871383;fill:#ffffff;fill-opacity:1;stroke:none;stroke-width:1.473;stroke-linejoin:round;stroke-miterlimit:4;stroke-dasharray:1.473,1.473;stroke-dashoffset:0" />
  </g>
  <g
     style="display:none"
     inkscape:label="Layer 8"
     id="layer8"
     inkscape:groupmode="layer">
    <path
       sodipodi:nodetypes="ccscscccc"
       id="path880"
       d="m 109.40607,202.13987 c 19.07593,11.78219 19.07593,12.34325 19.07593,12.34325 0,0 4.48845,2.24422 2.80528,6.73268 -1.68317,4.48845 -2.24422,6.17162 0.56106,10.09902 2.24422,-5.04951 0.56106,-11.78219 6.73268,-12.9043 6.17163,-1.12212 7.29374,1.68316 10.66008,6.17162 -2.86753,-8.77718 -2.50186,-10.02546 -15.14853,-11.78219 L 115.01664,200.4567 Z"
       style="fill:#916f6f;stroke:#000000;stroke-width:0.264583px;stroke-linecap:butt;stroke-linejoin:miter;stroke-opacity:1" />
  </g>
</svg>
